<svg width="204" height="204" viewBox="0 0 204 204" fill="none" xmlns="http://www.w3.org/2000/svg">
<g filter="url(#filter0_d_253_94)">
<path d="M102 197.997C155.019 197.997 198 155.016 198 101.997C198 48.9774 155.019 5.9967 102 5.9967C48.9807 5.9967 6 48.9774 6 101.997C6 155.016 48.9807 197.997 102 197.997Z" fill="white"/>
</g>
<path d="M126.721 130.274C123.262 134.953 118.447 138.48 113.021 140.446C104.069 143.77 95.8627 141.125 92.8787 139.972C89.0808 138.48 85.4863 136.445 82.3667 133.8C80.4677 132.173 75.7882 128.239 75.0422 124.373C74.7709 122.813 75.0422 121.186 75.856 119.762C76.3985 118.812 77.6871 116.913 84.5369 114.268C89.9624 112.166 100.542 109.792 108.613 109.792C116.683 109.792 123.804 113.319 126.042 115.828C127.738 117.727 128.823 120.101 129.026 122.61C129.23 125.458 128.416 128.171 126.721 130.274Z" fill="url(#paint0_linear_253_94)"/>
<g opacity="0.7">
<path opacity="0.7" d="M126.721 130.274C125.229 132.24 123.465 134.004 121.566 135.631C120.617 131.359 118.718 127.29 115.937 123.831C113.225 120.372 109.698 117.659 105.697 115.76C101.695 113.861 97.3549 112.912 92.9467 113.048C88.5384 113.115 84.198 114.2 80.3323 116.235C81.6887 115.557 83.0451 114.946 84.4693 114.404C89.8948 112.302 100.475 109.928 108.545 109.928C116.616 109.928 123.737 113.454 125.975 115.964C127.67 117.863 128.755 120.236 128.959 122.746C129.23 125.458 128.416 128.171 126.721 130.274Z" fill="url(#paint1_linear_253_94)"/>
</g>
<g opacity="0.7">
<path opacity="0.7" d="M129.026 124.441C128.891 126.272 128.28 128.036 127.263 129.595C127.127 129.867 126.653 130.409 126.653 130.477C123.194 135.089 118.447 138.548 113.021 140.447C104.069 143.77 95.8627 141.193 92.8786 139.972C89.0808 138.48 85.4863 136.445 82.3666 133.8C80.6033 132.376 78.9757 130.748 77.4836 128.985C83.2483 130.545 89.4199 130.274 94.981 128.171C100.61 126.069 105.425 122.339 108.816 117.32C108.816 117.252 108.884 117.252 108.884 117.252C110.444 114.879 112.885 113.251 115.598 112.641C118.379 112.03 121.227 112.505 123.669 113.929C124.347 114.336 124.957 114.811 125.5 115.286L126.042 115.828C127.738 117.727 128.755 120.101 129.026 122.61C129.026 123.22 129.094 123.831 129.026 124.441Z" fill="url(#paint2_linear_253_94)"/>
</g>
<path d="M76.263 67.4051C64.7337 67.4051 57.0023 77.239 57.0023 89.0395C56.9345 93.5156 58.3587 97.9239 61.0037 101.518C63.7843 105.181 68.6672 107.825 74.8388 107.825C79.7896 107.825 82.5024 102.468 79.3149 102.468C69.0742 102.468 63.4452 94.1938 63.4452 84.5634C63.4452 82.1898 63.513 81.9863 66.0223 81.9863H83.7232C87.7245 81.9863 89.0809 81.9185 89.3522 81.3081C89.6913 80.4943 89.7591 79.6804 89.7591 78.7988C89.8269 73.0341 84.4692 67.4051 76.263 67.4051ZM81.9598 78.1206C81.2138 78.731 79.1114 79.0701 71.9904 79.0701H65.2085C64.5303 79.0701 64.5303 78.7988 64.5303 78.5953C64.6659 75.4078 69.5489 70.2536 75.1779 70.2536C80.8069 70.2536 82.5702 73.5767 82.5702 76.2895C82.5702 77.5102 82.2989 77.9171 81.9598 78.1206ZM118.311 68.7615C119.464 69.6432 119.261 72.2203 118.379 72.8307H107.663C106.036 72.8307 105.968 73.102 105.968 75.1365V93.7869C105.968 99.3481 98.9147 104.028 98.9147 98.263V75.5435C98.9147 72.9663 98.8469 72.7629 96.8801 72.7629H94.1673C93.8961 72.4916 93.6926 72.1525 93.6926 71.8134C93.6248 71.4743 93.6926 71.0674 93.8961 70.7283C96.6767 69.8466 99.0503 68.6259 99.9998 67.7442C101.627 66.0488 102.916 64.1498 104.001 62.1152C104.476 61.9118 105.629 61.9118 106.036 62.59V66.8626C106.036 68.5581 106.104 68.6937 107.731 68.6937L118.311 68.7615ZM146.185 94.3294C146.185 101.586 139.878 105.181 132.824 105.181C131.671 105.181 130.993 102.468 133.435 102.468C136.826 102.468 139.81 100.433 139.81 96.364C139.81 91.9558 136.012 89.5821 132.485 87.5475C126.924 84.4278 123.058 81.0368 123.058 75.8147C123.058 68.8293 128.755 64.8958 136.012 64.8958C140.013 64.8958 143.54 65.8453 144.422 66.5913C145.371 69.0328 145.914 71.6778 145.914 74.3227C145.507 75.0009 144.082 75.2044 143.608 74.594C141.98 70.3892 139.132 67.6086 135.198 67.6086C131.265 67.6086 129.094 69.9823 129.094 73.4411C129.094 77.3746 133.096 79.477 136.419 81.3759C141.505 84.2922 146.185 87.5475 146.185 94.3294Z" fill="url(#paint3_linear_253_94)"/>
<defs>
<filter id="filter0_d_253_94" x="0.34" y="0.336704" width="203.32" height="203.32" filterUnits="userSpaceOnUse" color-interpolation-filters="sRGB">
<feFlood flood-opacity="0" result="BackgroundImageFix"/>
<feColorMatrix in="SourceAlpha" type="matrix" values="0 0 0 0 0 0 0 0 0 0 0 0 0 0 0 0 0 0 127 0" result="hardAlpha"/>
<feOffset/>
<feGaussianBlur stdDeviation="2.83"/>
<feColorMatrix type="matrix" values="0 0 0 0 0 0 0 0 0 0 0 0 0 0 0 0 0 0 0.16 0"/>
<feBlend mode="normal" in2="BackgroundImageFix" result="effect1_dropShadow_253_94"/>
<feBlend mode="normal" in="SourceGraphic" in2="effect1_dropShadow_253_94" result="shape"/>
</filter>
<linearGradient id="paint0_linear_253_94" x1="74.8757" y1="125.981" x2="129.049" y2="125.981" gradientUnits="userSpaceOnUse">
<stop stop-color="#330066"/>
<stop offset="0.25" stop-color="#320367"/>
<stop offset="0.4" stop-color="#300B6C"/>
<stop offset="0.53" stop-color="#2C1973"/>
<stop offset="0.64" stop-color="#272E7E"/>
<stop offset="0.74" stop-color="#20488B"/>
<stop offset="0.84" stop-color="#17689C"/>
<stop offset="0.92" stop-color="#0D8EB0"/>
<stop offset="1" stop-color="#02B5C4"/>
</linearGradient>
<linearGradient id="paint1_linear_253_94" x1="80.3363" y1="122.773" x2="129.049" y2="122.773" gradientUnits="userSpaceOnUse">
<stop stop-color="#330066"/>
<stop offset="0.12" stop-color="#360469"/>
<stop offset="0.25" stop-color="#401170"/>
<stop offset="0.37" stop-color="#51257C"/>
<stop offset="0.5" stop-color="#68438E"/>
<stop offset="0.63" stop-color="#8668A4"/>
<stop offset="0.76" stop-color="#AB96C0"/>
<stop offset="0.89" stop-color="#D6CBE0"/>
<stop offset="1" stop-color="white"/>
</linearGradient>
<linearGradient id="paint2_linear_253_94" x1="77.4545" y1="127.22" x2="129.04" y2="127.22" gradientUnits="userSpaceOnUse">
<stop stop-color="#330267" stop-opacity="0"/>
<stop offset="0.2" stop-color="#243883" stop-opacity="0.31"/>
<stop offset="0.4" stop-color="#18659A" stop-opacity="0.56"/>
<stop offset="0.58" stop-color="#0E87AC" stop-opacity="0.75"/>
<stop offset="0.74" stop-color="#08A0B9" stop-opacity="0.89"/>
<stop offset="0.89" stop-color="#03B0C1" stop-opacity="0.97"/>
<stop offset="1" stop-color="#02B5C4"/>
</linearGradient>
<linearGradient id="paint3_linear_253_94" x1="57.002" y1="84.9057" x2="146.191" y2="84.9057" gradientUnits="userSpaceOnUse">
<stop stop-color="#26004B"/>
<stop offset="0.56" stop-color="#2F005D"/>
<stop offset="1" stop-color="#330066"/>
</linearGradient>
</defs>
</svg>
