<svg width="428" height="124" viewBox="0 0 428 124" fill="none" xmlns="http://www.w3.org/2000/svg">
<path d="M75.1515 79.0187V50.6268C75.1515 49.019 76.4544 47.7036 78.0469 47.7036H84.4708C86.0633 47.7036 87.3661 49.019 87.3661 50.6268V80.0053C87.3661 87.1855 93.5006 92.9589 100.757 92.2281C107.09 91.6069 111.705 85.8701 111.705 79.4572V51.1384C111.705 49.5306 113.008 48.2151 114.6 48.2151H121.024C122.635 48.2151 123.92 49.5306 123.92 51.1384V100.998C123.92 102.606 122.635 103.903 121.042 103.903H117.043C114.094 103.903 111.705 101.491 111.705 98.513C110.456 101.838 102.15 105.145 96.5769 104.414C84.1632 102.807 75.1334 91.6252 75.1515 79.0004" fill="white"/>
<path d="M148.729 71.6193V101.034C148.729 102.624 147.444 103.921 145.888 103.921H139.373C137.799 103.921 136.514 102.624 136.514 101.034V50.6268C136.514 49.019 137.817 47.7036 139.409 47.7036H143.951C146.593 47.7036 148.729 49.8594 148.729 52.5269C150.973 49.3844 155.75 46.991 159.749 46.991C166.553 46.991 172.633 50.17 176.886 55.1213C181.138 50.17 187.218 46.991 194.022 46.991C206.834 46.991 217.275 58.0445 217.275 71.6193V101.034C217.275 102.624 215.991 103.921 214.416 103.921H207.92C206.346 103.921 205.061 102.624 205.061 101.034V71.6193C205.061 64.841 200.121 59.3234 194.022 59.3234C187.924 59.3234 182.984 64.841 182.984 71.6193V101.034C182.984 102.624 181.699 103.921 180.125 103.921H173.61C172.036 103.921 170.769 102.624 170.769 101.034V71.6193C170.769 64.841 165.811 59.3234 159.731 59.3234C153.651 59.3234 148.711 64.841 148.711 71.6193H148.693H148.729Z" fill="white"/>
<path d="M238.683 71.9299C238.465 72.8616 239.298 73.6655 240.203 73.4098L265.718 65.8641C266.315 65.6814 266.568 64.8958 266.134 64.4391C264.976 63.215 263.655 62.1736 262.135 61.3514C259.728 60.036 257.086 59.36 254.426 59.36C252.906 59.36 251.368 59.5792 249.866 60.0177C245.74 61.2418 242.32 64.0189 240.257 67.8373C239.551 69.1528 239.026 70.5413 238.701 71.9481M227.192 83.6776C225.075 76.333 225.889 68.6047 229.526 61.8995C233.163 55.1761 239.171 50.2979 246.446 48.1603C253.72 45.9861 261.375 46.8448 268.034 50.4989C272.196 52.7827 275.706 56.1078 278.258 60.0908C279.742 62.4111 280.882 64.9324 281.642 67.5816C282.094 69.1163 282.402 70.4317 282.583 71.4183C282.818 72.6607 282.076 73.8848 280.864 74.2502L243.659 85.2671C242.79 85.5229 242.483 86.6557 243.134 87.3134C244.166 88.3365 245.36 89.2318 246.681 89.9443C250.463 92.0271 254.824 92.5021 258.95 91.278C262.406 90.2549 265.338 88.1721 267.419 85.2854C268.142 84.2805 269.481 83.9699 270.567 84.5546L277.046 88.1173C278.312 88.8115 278.71 90.4741 277.914 91.68C274.241 97.1976 268.812 101.199 262.406 103.099C259.764 103.884 257.068 104.268 254.39 104.268C249.703 104.268 245.052 103.099 240.836 100.742C229.635 94.5119 227.21 83.6776 227.21 83.6776" fill="white"/>
<path d="M303.881 101.034C303.881 102.624 302.597 103.921 301.04 103.921H294.526C292.952 103.921 291.667 102.624 291.667 101.034V50.6268C291.667 49.019 292.97 47.7036 294.562 47.7036H299.104C301.746 47.7036 303.881 49.8594 303.881 52.5269V52.8558C307.283 49.3113 313.436 46.4429 319.028 47.1737C331.423 48.7815 340.453 59.9629 340.453 72.5876V101.034C340.453 102.624 339.168 103.921 337.594 103.921H331.079C329.505 103.921 328.238 102.624 328.238 101.034V72.1674C328.238 65.7545 323.606 60.0177 317.272 59.3782C310.016 58.6474 303.881 64.4208 303.881 71.601V101.034Z" fill="white"/>
<path d="M361.715 87.4961C361.715 93.0502 369.135 93.3426 370.618 93.3426C376.101 93.3426 383.72 90.4924 386.561 83.1295C384.1 81.6496 378.924 80.0784 373.604 80.0784C371.451 80.0784 369.261 80.3342 367.235 80.9554C362.385 82.4352 361.733 85.0844 361.733 87.4961M349.501 87.4778C349.501 75.4926 358.983 67.746 373.622 67.746C378.4 67.746 383.34 68.6412 387.574 70.1577C387.104 64.0919 382.127 59.3051 376.011 59.3051C372.319 59.3051 368.845 59.5061 364.792 61.5158C363.326 62.2466 361.553 61.8264 360.666 60.4196L357.463 55.377C356.486 53.8241 356.992 51.7047 358.603 50.8643C365.371 47.2833 371.179 46.9727 376.156 46.991C389.293 46.991 399.897 57.8252 399.897 71.0894V101.126C399.897 102.642 398.685 103.848 397.201 103.848H394.324C390.65 103.848 387.683 100.852 387.683 97.1428C384.842 101.838 376.554 105.657 370.637 105.657C358.205 105.657 349.519 98.1842 349.519 87.4778" fill="white"/>
<path d="M419.966 41.5099C415.55 41.5099 411.931 37.929 411.931 33.5441C411.931 29.1593 415.55 25.5783 419.966 25.5783C424.381 25.5783 428 29.1593 428 33.5441C428 37.929 424.381 41.5099 419.966 41.5099Z" fill="#27C28C"/>
<path d="M416.256 47.6853H423.657C424.996 47.6853 426.064 48.7815 426.064 50.1152V101.455C426.064 102.807 424.978 103.884 423.657 103.884H416.256C414.935 103.884 413.849 102.788 413.849 101.455V50.0969C413.849 48.745 414.935 47.667 416.256 47.667V47.6853Z" fill="white"/>
<path d="M59.7521 0H52.3509C51.0217 0 49.9442 1.08792 49.9442 2.42994V101.491C49.9442 102.833 51.0217 103.921 52.3509 103.921H59.7521C61.0813 103.921 62.1588 102.833 62.1588 101.491V2.42994C62.1588 1.08792 61.0813 0 59.7521 0Z" fill="white"/>
<path d="M27.3788 36.1385H34.78C36.1191 36.1385 37.1867 37.2347 37.1867 38.5684V121.57C37.1867 122.922 36.101 124 34.78 124H27.3788C26.0397 124 24.9721 122.904 24.9721 121.57V38.5684C24.9721 37.2164 26.0578 36.1385 27.3788 36.1385Z" fill="#27C28C"/>
<path d="M2.40673 15.3835H9.80788C11.147 15.3835 12.2146 16.4797 12.2146 17.8135V100.815C12.2146 102.167 11.1289 103.245 9.80788 103.245H2.40673C1.06765 103.245 0 102.149 0 100.815V17.8135C0 16.4615 1.08574 15.3835 2.40673 15.3835Z" fill="#528CD3"/>
</svg>
