<svg width="24" height="24" viewBox="0 0 24 24" fill="none" xmlns="http://www.w3.org/2000/svg">
<path fill-rule="evenodd" clip-rule="evenodd" d="M18 3C16.3432 3 15 4.3432 15 6C15 7.6568 16.3432 9 18 9C19.6568 9 21 7.6568 21 6C21 4.3432 19.6568 3 18 3ZM18 15C16.3432 15 15 16.3432 15 18C15 19.6568 16.3432 21 18 21C19.6568 21 21 19.6568 21 18C21 16.3432 19.6568 15 18 15ZM3 18C3 16.3432 4.3432 15 6 15C7.6568 15 9 16.3432 9 18C9 19.6568 7.6568 21 6 21C4.3432 21 3 19.6568 3 18ZM6 3C4.3432 3 3 4.3432 3 6C3 7.6568 4.3432 9 6 9C7.6568 9 9 7.6568 9 6C9 4.3432 7.6568 3 6 3Z" fill="white"/>
</svg>
